<?xml version="1.0" encoding="UTF-8" standalone="no"?>
<svg
   width="40"
   height="40"
   viewBox="0 0 40 40"
   version="1.1"
   id="svg5"
   inkscape:version="1.1.2 (b8e25be833, 2022-02-05)"
   sodipodi:docname="bulletHole.svg"
   xmlns:inkscape="http://www.inkscape.org/namespaces/inkscape"
   xmlns:sodipodi="http://sodipodi.sourceforge.net/DTD/sodipodi-0.dtd"
   xmlns:xlink="http://www.w3.org/1999/xlink"
   xmlns="http://www.w3.org/2000/svg"
   xmlns:svg="http://www.w3.org/2000/svg">
  <sodipodi:namedview
     id="namedview7"
     pagecolor="#ffffff"
     bordercolor="#666666"
     borderopacity="1.0"
     inkscape:pageshadow="2"
     inkscape:pageopacity="0.0"
     inkscape:pagecheckerboard="0"
     inkscape:document-units="px"
     showgrid="false"
     inkscape:showpageshadow="false"
     units="px"
     inkscape:zoom="2.0899583"
     inkscape:cx="91.867864"
     inkscape:cy="62.680678"
     inkscape:window-width="1680"
     inkscape:window-height="979"
     inkscape:window-x="-8"
     inkscape:window-y="-8"
     inkscape:window-maximized="1"
     inkscape:current-layer="layer1" />
  <defs
     id="defs2">
    <linearGradient
       inkscape:collect="always"
       xlink:href="#linearGradient4089"
       id="linearGradient1895"
       gradientUnits="userSpaceOnUse"
       x1="111.27"
       y1="255.7"
       x2="120.72"
       y2="269.10999" />
    <linearGradient
       id="linearGradient4089"
       inkscape:collect="always">
      <stop
         id="stop4091"
         style="stop-color:#636a72"
         offset="0" />
      <stop
         id="stop4097"
         style="stop-color:#636a72"
         offset=".41580" />
      <stop
         id="stop4099"
         style="stop-color:#c4c4c6"
         offset=".51492" />
      <stop
         id="stop4093"
         style="stop-color:#e7e7e7"
         offset="1" />
    </linearGradient>
    <filter
       id="filter4141-5"
       inkscape:collect="always"
       x="-0.050460842"
       y="-0.041630194"
       width="1.1009217"
       height="1.0832604">
      <feGaussianBlur
         id="feGaussianBlur4143-9"
         stdDeviation="0.35044037"
         inkscape:collect="always" />
    </filter>
  </defs>
  <g
     inkscape:label="Capa 1"
     inkscape:groupmode="layer"
     id="layer1">
    <g
       id="g3039"
       inkscape:label="bulletHole"
       transform="matrix(0.44909118,0,0,0.44909114,-166.99734,-87.102171)">
      <path
         id="path4378-0"
         style="fill:#c4c4c4;stroke-width:0.931224"
         d="m 398.34216,207.03042 c 0.73566,4.4112 4.40468,7.87814 5.58734,11.82374 -2.47706,3.74063 -7.46842,2.87842 -10.82083,0.93216 -1.78794,-0.54104 -7.46841,-2.6959 -4.51643,0.7515 2.24425,3.39198 7.5336,6.83657 4.45125,11.31901 -1.43409,3.03748 -3.75283,5.49469 -1.75071,8.76217 0.9778,5.68112 -5.1776,7.2493 -9.02355,9.33925 -1.84383,1.5449 -6.17401,3.34681 -6.2392,5.17946 4.51644,-2.34668 9.69404,-2.87935 14.4526,-4.59931 5.08448,-0.69563 5.85739,6.28855 9.37741,8.60823 4.19982,1.4108 7.17043,4.24079 7.57085,8.83545 1.47134,2.12505 0.35387,9.29734 4.1812,7.03633 2.44912,-3.20341 0.21418,-9.53574 5.26141,-10.59267 3.7249,-0.54849 7.49636,-1.07371 10.83014,-2.9734 2.92404,-2.73314 4.90754,2.77412 6.82587,2.05801 -1.43409,-3.17082 -1.23853,-6.91434 1.95557,-9.32435 1.58308,-5.00161 6.50925,-3.76959 10.45763,-3.38686 0.15831,-1.26647 -9.25636,-0.56246 -6.38819,-5.13942 2.78436,-4.18679 8.26927,-4.78612 12.29215,-7.2872 2.45843,-0.68687 2.55156,-2.7432 -0.36318,-1.99105 -3.83663,-0.70988 -8.679,0.9993 -11.82653,-1.37542 -0.77292,-2.58656 -1.37821,-5.79566 -2.89611,-7.56703 2.95198,-2.53181 7.56154,0.62587 11.21193,-0.18456 -0.9964,-0.60288 -5.22416,-1.33194 -7.41254,-1.99041 -2.6633,-1.02136 -6.323,-0.83353 -8.30652,-2.66655 -1.21059,-4.17887 3.29654,-7.24073 3.90183,-11.01452 -3.54795,1.59239 -6.11814,4.96156 -9.83372,6.28856 -3.57589,0.52334 -7.51497,-0.75616 -10.61595,-2.47893 -2.56086,-3.46601 -5.54078,4.72504 -9.04218,1.60264 -3.30584,-2.94266 -5.44765,-7.11082 -8.81868,-9.84769 l -0.50286,-0.1164 z m -17.15315,44.62796 c 0.88467,1.00758 -0.37249,0.23281 0,0 z m 5.74565,0.60902 c -0.94053,0.61833 0.37249,0.27564 0,0 z m 0,0.69656 c 0.16763,-0.013 -0.17693,-0.19929 0,0 z m -0.69841,0.65372 c 0.49354,-0.27378 -0.34456,-0.74406 0,0 z m -0.17694,0.52241 c 0.39112,-0.0624 -0.17693,-0.44605 0,0 z m 24.03488,23.20609 c -0.28868,0.63975 0.46562,0.12106 0,0 z"
         inkscape:label="splash" />
      <ellipse
         id="path4380-8"
         style="fill:url(#linearGradient1895);filter:url(#filter4141-5)"
         transform="matrix(2.195453,0,0,1.8112302,161.62509,-235.62678)"
         cx="115.915"
         cy="261.91782"
         rx="8.3337584"
         ry="10.101525"
         inkscape:label="sombraGris" />
      <path
         id="path4382-9"
         style="fill:#232126;stroke-width:0.931224"
         d="m 417.7116,227.01522 c -0.6146,0.67598 -0.62392,1.54425 -1.72276,1.80825 -0.97778,0.4008 -2.058,0.4603 -3.10098,0.34279 -1.11746,0.44093 -1.80656,1.70069 -3.05441,1.84233 -0.74498,-0.10272 -1.33165,-1.42776 -1.94625,-0.28794 0.85672,0.31552 0.21418,1.60432 0.27936,2.41467 0.13968,1.58066 -1.92763,1.24951 -2.08594,2.62875 -0.42836,0.59887 0.20487,2.88641 -0.85672,2.26576 0.64254,-0.31326 -0.66117,-1.16338 -0.70773,-0.25209 -0.48425,1.32783 1.18265,0.48471 1.55514,1.01076 -0.0652,0.681 0.33523,1.37057 0.65185,1.70609 -0.3073,0.85515 -1.81588,1.43436 -0.58667,2.32554 1.4434,0.15832 1.94626,1.80192 2.24425,2.99575 -1.2199,0.40695 0.2235,0.66117 0.77292,0.42464 1.2199,-0.2654 1.39684,1.18451 0.69842,1.23666 1.42477,0.3697 2.76573,1.30279 4.28363,1.10444 1.23852,-0.9005 2.61674,-0.0558 3.92045,0.13968 1.00572,-0.38367 2.14181,-0.22443 3.12891,-0.55781 0.50286,-0.88652 0.61461,-2.5385 2.11388,-1.90062 0.89397,0.32592 1.58308,-0.44513 1.04296,-1.23294 0.15831,-1.1305 1.23853,-2.08036 2.34669,-2.2098 0.50286,0.84276 2.84023,-0.39762 1.30372,-0.53638 -1.2199,0.14062 -1.47134,-1.59202 -1.4434,-2.52138 -0.27936,-1.07193 1.9835,-2.45284 0.17693,-2.78343 -1.07091,0.12068 -1.17335,-1.53522 -1.3689,-2.33802 -0.0838,-1.17139 -0.82878,-2.10271 -1.86245,-2.59662 -0.97778,-0.37641 -0.39111,-1.85826 -0.25142,-2.0067 -1.23853,0.63277 -3.12892,0.59924 -3.82733,-0.80197 -0.66117,0.55287 -0.0931,-1.1874 -0.70773,-0.42333 -0.0745,-0.55855 -0.32593,-1.83936 -0.99642,-1.79708 z m 10.8022,15.84757 c 0.20486,0.22256 0.12106,-0.0866 0,0 z m -8.7535,-14.67237 c 0.49354,-0.18885 -0.38181,-0.34706 0,0 z m -0.34455,0.17414 c 0.67978,0.38488 -0.27937,-0.74414 0,0 z m 8.22269,9.01257 c 0.2235,-0.1692 -0.42836,-0.26921 0,0 z m -22.4611,1.52385 c -0.16762,0.66369 0.0372,0.6648 0,0 z m 15.93323,11.45033 c 0.98709,0.79247 0.40973,-0.97592 0,0 z"
         inkscape:label="agujeroNegro" />
      <rect
         style="fill:none;stroke:none;stroke-width:0.931224;stroke-miterlimit:4;stroke-dasharray:none;paint-order:markers fill stroke;stop-color:#000000"
         id="rect2675"
         width="89.068771"
         height="89.068779"
         x="371.85623"
         y="193.95212"
         inkscape:label="Cuadrado" />
    </g>
  </g>
</svg>
