<?xml version="1.0" encoding="UTF-8" standalone="no"?>
<!-- Created with Inkscape (http://www.inkscape.org/) -->

<svg
   width="75mm"
   height="30mm"
   viewBox="0 0 75 30"
   version="1.1"
   id="svg665"
   xmlns="http://www.w3.org/2000/svg"
   xmlns:svg="http://www.w3.org/2000/svg">
  <defs
     id="defs662" />
  <g
     id="layer1"
     style="fill:#ffffff">
    <g
       id="Layer1010"
       transform="matrix(1.4247614,0,0,1.4247614,-100.6532,-159.37448)"
       fill="none"
       style="stroke-width:1.00194;fill:#ffffff">
      <g
         id="Layer1011"
         fill="none"
         style="stroke-width:1.00389;fill:#ffffff">
        <path
           id="path3818"
           transform="translate(110.6352,119.2501)"
           fill="#009ee0"
           fill-rule="evenodd"
           stroke-opacity="0"
           stroke="#000000"
           stroke-width="0"
           stroke-linecap="square"
           stroke-linejoin="bevel"
           d="M 8.7672,2.1878 C 8.7257,2.2858 8.6671,2.3634 8.5921,2.4207 8.5154,2.4768 8.4214,2.5165 8.3076,2.5394 8.1952,2.5619 8.0619,2.5809 7.9115,2.5954 7.526,2.6413 7.1461,2.6881 6.7716,2.7384 6.3976,2.7869 6.061,2.872 5.7628,2.9933 5.4647,3.1137 5.2246,3.2898 5.0433,3.52 4.8616,3.7512 4.7712,4.0697 4.7712,4.4777 c 0,0.0459 0.004,0.0878 0.006,0.1319 H 4.2483 C 4.1553,4.782 4.0441,4.9329 3.9109,5.0612 3.7605,5.2077 3.5853,5.3211 3.3904,5.4031 3.1937,5.4856 2.9854,5.5266 2.7666,5.5266 2.4266,5.5266 2.127,5.4561 1.8711,5.3141 1.6135,5.1715 1.4005,4.985 1.2298,4.7529 1.0609,4.5222 0.9319,4.258 0.8442,3.9625 0.7574,3.6678 0.7154,3.3669 0.7154,3.0608 0.7155,2.7537 0.7573,2.4539 0.8442,2.1578 0.9321,1.8627 1.0609,1.5994 1.2298,1.3678 1.4005,1.1358 1.6135,0.95 1.8711,0.8071 2.127,0.6655 2.4266,0.595 2.7666,0.595 3.2422,0.5949 3.6127,0.7176 3.8764,0.9638 4.1411,1.2116 4.3224,1.5517 4.4217,1.9841 h 0.7138 l -0.004,-0.023 h 0.603 C 5.7495,1.4852 5.9003,1.1393 6.1883,0.924 6.4751,0.7092 6.8448,0.6012 7.2987,0.6012 c 0.2113,0 0.4097,0.0162 0.5959,0.0502 0.1844,0.0349 0.3471,0.0962 0.4865,0.188 0.1403,0.0904 0.2501,0.2134 0.3292,0.3678 0.0797,0.1557 0.1186,0.3538 0.1186,0.5956 0,0.1583 -0.0199,0.2867 -0.0618,0.385 z M 8.829,3.7524 C 8.829,4.04 8.7739,4.2964 8.6653,4.5236 8.5556,4.7499 8.4081,4.9426 8.2229,5.1014 8.0373,5.2602 7.8211,5.3811 7.5719,5.4645 7.3213,5.5474 7.0609,5.5884 6.7888,5.5884 6.6217,5.5884 6.4597,5.5624 6.3014,5.5095 6.1421,5.457 6.0032,5.3788 5.8814,5.2774 5.7615,5.1742 5.6649,5.0542 5.5933,4.9144 5.5211,4.775 5.4853,4.614 5.4853,4.4332 5.4853,4.1447 5.5699,3.9241 5.7403,3.7692 5.9106,3.6149 6.1271,3.4957 6.3918,3.4119 6.6566,3.3294 6.9494,3.2673 7.271,3.2254 7.5917,3.1835 7.904,3.1371 8.2061,3.0833 8.3045,3.0683 8.417,3.0423 8.5458,3.0048 8.6742,2.9664 8.7615,2.906 8.8074,2.8226 H 8.829 Z M 9.5436,1.8817 C 9.5436,1.4887 9.4796,1.1697 9.3513,0.924 9.2225,0.6792 9.0562,0.4869 8.8524,0.3514 8.6486,0.2156 8.417,0.1234 8.1603,0.074 7.904,0.0251 7.6459,0 7.3897,0 7.0491,0 6.739,0.0382 6.4597,0.1132 6.1805,0.1886 5.9357,0.3061 5.7298,0.4657 5.5211,0.6245 5.3561,0.8279 5.2366,1.0771 5.1576,1.2381 5.1024,1.4208 5.0649,1.6187 4.9427,1.1358 4.7094,0.7586 4.3592,0.4931 3.9247,0.1649 3.3931,0 2.7667,0 2.3204,0 1.9264,0.0824 1.5814,0.2465 1.2374,0.411 0.9488,0.6315 0.7155,0.9081 0.4804,1.1847 0.3035,1.5077 0.1822,1.8777 0.0605,2.2483 0,2.6417 0,3.0608 c 0,0.4187 0.0605,0.8131 0.1822,1.1818 0.1214,0.371 0.2982,0.6939 0.5333,0.9704 0.2334,0.2761 0.5219,0.4945 0.8659,0.656 0.345,0.1601 0.7389,0.2403 1.1853,0.2403 0.6644,0 1.2087,-0.1958 1.6317,-0.5884 0.1721,-0.1588 0.3123,-0.3454 0.4309,-0.5541 0.0244,0.0971 0.0543,0.1911 0.0944,0.2766 0.1029,0.214 0.2419,0.3927 0.42,0.533 0.1774,0.1389 0.3861,0.2413 0.6229,0.3052 0.2382,0.0644 0.4931,0.0966 0.7657,0.0966 0.1289,0 0.248,-0.007 0.3613,-0.0181 L 7.0916,6.1621 7.118,6.1591 C 7.2473,6.1455 7.3672,6.1252 7.474,6.0978 7.5923,6.0683 7.7007,6.0291 7.8053,5.984 8.4904,5.741 9.4325,5.1825 9.5053,3.9447 l -0.004,0.003 z"
           style="fill:#ffffff" />
        <path
           id="path3820"
           transform="translate(108.1514,119.3386)"
           fill="#009ee0"
           fill-rule="evenodd"
           stroke-opacity="0"
           stroke="#000000"
           stroke-width="0"
           stroke-linecap="square"
           stroke-linejoin="bevel"
           d="m 3.202,0.5929 v -0.483 c 0,0 -0.0954,-0.075 -0.3114,-0.1019 V 0.001 H 2.8024 L 2.7009,0 2.633,0.003 2.6061,0.006 C 2.1962,0.0293 1.8353,0.1428 1.5244,0.3496 1.1434,0.6033 0.8614,0.9668 0.6801,1.4369 H 0.6581 V 0.081 H 0 V 5.8653 H 0.7146 V 2.7824 c 0,-0.3066 0.052,-0.5885 0.1583,-0.8466 C 0.9144,1.8331 0.9647,1.7392 1.0207,1.6482 1.6303,0.5393 2.9134,0.5715 3.202,0.5935 Z"
           style="fill:#ffffff" />
        <path
           id="path3822"
           transform="translate(93.2168,119.2501)"
           fill="#009ee0"
           fill-rule="evenodd"
           stroke-opacity="0"
           stroke="#000000"
           stroke-width="0"
           stroke-linecap="square"
           stroke-linejoin="bevel"
           d="M 10.2044,2.6576 C 10.234,2.3956 10.2966,2.1389 10.391,1.8892 10.4854,1.6391 10.6124,1.4185 10.7708,1.2275 10.93,1.0369 11.1219,0.8847 11.3486,0.7683 11.5755,0.6523 11.8361,0.595 12.1308,0.595 c 0.2867,-10e-5 0.5448,0.0573 0.7715,0.1733 0.2263,0.1164 0.4195,0.2686 0.5778,0.4592 0.1593,0.191 0.281,0.4094 0.3697,0.6559 0.0861,0.2463 0.1327,0.5047 0.1411,0.7742 z M 4.0584,3.7524 C 4.0584,4.04 4.0031,4.2964 3.8942,4.5236 3.7839,4.7499 3.6366,4.9426 3.4518,5.1014 3.2665,5.2602 3.0494,5.3811 2.8002,5.4645 2.5515,5.5474 2.2899,5.5884 2.0177,5.5884 1.8514,5.5884 1.6886,5.5624 1.5307,5.5095 1.3715,5.457 1.2326,5.3788 1.1112,5.2774 0.9907,5.1742 0.8937,5.0542 0.8218,4.9144 0.7499,4.775 0.7133,4.614 0.7133,4.4332 0.7134,4.1447 0.7998,3.9241 0.9696,3.7692 1.1399,3.6149 1.3565,3.4957 1.6211,3.4119 1.8858,3.3294 2.1774,3.2673 2.4999,3.2254 2.8206,3.1835 3.1328,3.1371 3.4354,3.0833 3.533,3.0683 3.6467,3.0423 3.7755,3.0048 3.904,2.9664 3.9904,2.906 4.0362,2.8226 H 4.0584 Z M 14.1436,1.0149 C 13.9359,0.7123 13.6654,0.4675 13.3332,0.2809 13.0007,0.0939 12.6001,0 12.1308,0 11.6698,0 11.2719,0.0881 10.9349,0.2642 10.5988,0.4397 10.3253,0.6713 10.1135,0.9593 9.9604,1.1653 9.8383,1.3934 9.7425,1.6422 9.6222,1.1463 9.3861,0.7626 9.0306,0.4931 8.5956,0.1649 8.0649,0 7.4381,0 6.9917,0 6.5973,0.0824 6.2542,0.2465 5.9101,0.411 5.6203,0.6315 5.3866,0.9081 5.1524,1.1847 4.9741,1.5077 4.8531,1.8777 4.8193,1.9841 4.7906,2.0921 4.7654,2.2016 L 4.773,1.8817 C 4.773,1.4887 4.7085,1.1697 4.5797,0.924 4.4509,0.6792 4.2851,0.4869 4.0816,0.3514 3.8771,0.2156 3.6467,0.1234 3.3895,0.074 3.1328,0.0251 2.8756,0 2.6185,0 2.2789,0 1.9683,0.0382 1.6886,0.1132 1.4094,0.1886 1.1654,0.3061 0.9572,0.4657 0.7499,0.6245 0.5854,0.8279 0.4654,1.0771 0.3442,1.3264 0.2726,1.6215 0.2501,1.9611 H 0.9644 C 0.9789,1.4852 1.1302,1.1393 1.4174,0.924 1.7045,0.7092 2.0737,0.6012 2.5285,0.6012 c 0.2109,0 0.4085,0.0162 0.5947,0.0502 0.1857,0.0349 0.3471,0.0962 0.4874,0.188 0.1398,0.0904 0.2492,0.2134 0.329,0.3678 C 4.0186,1.3629 4.0583,1.561 4.0583,1.8028 4.0584,1.9611 4.0367,2.0895 3.9966,2.1878 3.9542,2.2858 3.8956,2.3634 3.8205,2.4207 3.7446,2.4768 3.6507,2.5165 3.5365,2.5394 3.424,2.5619 3.2913,2.5809 3.1403,2.5954 2.7548,2.6413 2.3754,2.6881 2.001,2.7384 1.6273,2.7869 1.2898,2.872 0.9916,2.9933 0.693,3.1137 0.4531,3.2898 0.2726,3.52 0.0909,3.7512 0,4.0697 0,4.4777 0,4.7728 0.0508,5.0269 0.1536,5.2434 0.2559,5.4574 0.3953,5.6361 0.573,5.7764 0.7499,5.9153 0.9572,6.0177 1.1968,6.0816 1.4336,6.146 1.6886,6.1782 1.9617,6.1782 2.0901,6.1782 2.21,6.1712 2.3234,6.1601 L 2.3203,6.1621 2.3472,6.1591 C 2.4765,6.1455 2.5951,6.1252 2.7037,6.0978 2.8223,6.0683 2.9308,6.0291 3.034,5.984 3.7204,5.741 4.6617,5.1825 4.7346,3.9447 L 4.7306,3.9477 4.735,3.7575 c 0.0291,0.1659 0.0679,0.3277 0.1181,0.4844 0.121,0.371 0.2991,0.6939 0.5335,0.9704 0.2338,0.2761 0.5235,0.4945 0.8676,0.656 0.3433,0.1601 0.7375,0.2403 1.1839,0.2403 0.6649,0 1.21,-0.1958 1.633,-0.5884 C 9.3336,5.2767 9.5326,4.9728 9.6706,4.6089 H 8.9203 C 8.8277,4.7813 8.716,4.9322 8.5824,5.0605 8.4316,5.207 8.2581,5.3204 8.0614,5.4024 7.8651,5.4849 7.6574,5.5259 7.4381,5.5259 7.0985,5.5259 6.7999,5.4554 6.5431,5.3134 6.2851,5.1708 6.0729,4.9843 5.9022,4.7522 5.7311,4.5215 5.6035,4.2573 5.5171,3.9618 5.4302,3.6671 5.3866,3.3662 5.3866,3.0601 5.3866,2.753 5.4302,2.4532 5.5171,2.1571 5.6035,1.862 5.7311,1.5987 5.9022,1.3671 6.0729,1.1351 6.2851,0.9493 6.5431,0.8064 6.7999,0.6648 7.0985,0.5943 7.4381,0.5943 7.9145,0.5942 8.2843,0.7169 8.5494,0.9631 8.8132,1.2109 8.9952,1.551 9.0932,1.9834 H 9.6323 C 9.5374,2.3358 9.4898,2.6949 9.4898,3.0601 c 0,0.4107 0.0511,0.801 0.153,1.1708 0.1016,0.37 0.2585,0.6956 0.4707,0.9762 0.2118,0.2796 0.4853,0.4997 0.8214,0.6612 0.337,0.1601 0.7349,0.2403 1.1959,0.2403 0.7415,0 1.3135,-0.179 1.719,-0.5376 0.2788,-0.2492 0.4971,-0.57 0.655,-0.9621 h -0.7529 c -0.1067,0.1967 -0.2383,0.3684 -0.3962,0.513 -0.295,0.2695 -0.7031,0.404 -1.2249,0.404 -0.3401,0 -0.6312,-0.0705 -0.8722,-0.2125 C 11.0165,5.1708 10.8171,4.9921 10.6574,4.7752 10.4986,4.5586 10.384,4.3138 10.3124,4.0403 10.2402,3.7681 10.2044,3.5048 10.2044,3.2502 h 4.4995 C 14.7193,2.8466 14.6812,2.4487 14.5908,2.0571 14.5004,1.6639 14.3514,1.3164 14.1436,1.0142 Z"
           style="fill:#ffffff" />
      </g>
      <g
         id="Layer1012"
         fill="none"
         style="stroke-width:1.00389;fill:#ffffff">
        <path
           id="path3825"
           transform="translate(80.1038,121.8592)"
           fill="#009ee0"
           fill-rule="evenodd"
           stroke-opacity="0"
           stroke="#000000"
           stroke-width="0"
           stroke-linecap="square"
           stroke-linejoin="bevel"
           d="M 4.2453,0.2942 C 3.7631,0.3781 3.2611,0.4539 2.7565,0.5201 2.2501,0.5849 1.7852,0.6842 1.3767,0.8135 0.9708,0.9405 0.6347,1.1248 0.374,1.3609 0.1218,1.5911 0,1.9118 0,2.3455 0,2.6193 0.0543,2.8615 0.1609,3.0676 0.2686,3.2797 0.415,3.4636 0.5968,3.6159 0.7804,3.7707 0.9933,3.8894 1.2324,3.9679 1.4737,4.0494 1.7256,4.0904 1.9775,4.0904 2.3988,4.0904 2.8072,4.0239 3.1919,3.896 3.5743,3.7693 3.9121,3.5814 4.1959,3.3376 4.4786,3.0962 4.7067,2.7971 4.8752,2.4491 5.0433,2.1028 5.1284,1.7045 5.1284,1.2648 V 0 C 5.0433,0.0697 4.9325,0.1253 4.7988,0.1645 4.596,0.225 4.4102,0.2687 4.2453,0.2942 Z"
           style="fill:#ffffff" />
        <path
           id="path3827"
           transform="translate(73.7529,113.5472)"
           fill="#009ee0"
           fill-rule="evenodd"
           stroke-opacity="0"
           stroke="#000000"
           stroke-width="0"
           stroke-linecap="square"
           stroke-linejoin="bevel"
           d="m 12.7524,9.6336 -0.0098,0.2536 c -0.1169,1.9781 -1.5681,2.9017 -2.7666,3.3274 -0.1787,0.0776 -0.3547,0.1385 -0.5338,0.183 -0.1711,0.0437 -0.3674,0.0777 -0.581,0.0988 L 8.5141,13.5423 8.5389,13.5198 C 7.9848,13.5489 7.4704,13.4987 6.9971,13.3707 6.6071,13.2662 6.2626,13.0959 5.971,12.8675 5.6813,12.6385 5.4478,12.3425 5.2785,11.9869 5.1109,11.6341 5.0271,11.211 5.0271,10.7294 5.0271,10.061 5.1792,9.5295 5.4792,9.1484 5.7766,8.7712 6.1748,8.4791 6.6622,8.2811 7.1386,8.0884 7.6866,7.9498 8.2895,7.8691 8.8846,7.7915 9.4889,7.7165 10.1007,7.6441 c 0.2396,-0.0242 0.4492,-0.0538 0.6247,-0.089 0.165,-0.0326 0.303,-0.0904 0.4129,-0.1721 0.1063,-0.0794 0.1901,-0.191 0.2487,-0.3303 0.0614,-0.1452 0.0923,-0.3398 0.0923,-0.5771 0,-0.367 -0.0609,-0.6708 -0.1795,-0.9025 C 11.1828,5.3441 11.0179,5.1589 10.8101,5.023 10.5988,4.8855 10.3496,4.7914 10.0695,4.7394 9.7854,4.6874 9.473,4.6604 9.1387,4.6604 8.4436,4.6604 7.8688,4.8272 7.4302,5.1549 7.0002,5.4765 6.7704,6.0076 6.747,6.7323 l -0.004,0.09 H 5.4166 L 5.4232,6.7227 C 5.4598,6.1713 5.5789,5.6861 5.7752,5.282 5.9719,4.8735 6.2453,4.5347 6.5868,4.2745 6.9243,4.0159 7.3266,3.8232 7.7819,3.6997 8.2323,3.5784 8.7382,3.5161 9.2833,3.5161 c 0.4139,0 0.8324,0.0393 1.2441,0.1192 0.4195,0.0798 0.801,0.2324 1.1331,0.4548 0.3366,0.2254 0.615,0.5439 0.8254,0.9458 0.2104,0.4014 0.3171,0.9289 0.3171,1.5664 L 12.7426,9.6441 Z M 8.8116,17.6827 H 8.8711 C 13.7402,17.6665 17.6827,13.715 17.6827,8.8418 17.6827,3.9595 13.7241,0 8.8415,0 3.9591,0 0,3.9595 0,8.8418 c 0,4.8732 3.9431,8.8247 8.8116,8.8409 z"
           style="fill:#ffffff" />
      </g>
    </g>
  </g>
</svg>
