<?xml version="1.0" encoding="UTF-8" standalone="no"?>
<!-- Created with Inkscape (http://www.inkscape.org/) -->

<svg
   width="77mm"
   height="27mm"
   viewBox="0 0 77 27"
   version="1.1"
   id="svg1"
   xml:space="preserve"
   xmlns="http://www.w3.org/2000/svg"
   xmlns:svg="http://www.w3.org/2000/svg"><defs
     id="defs1"><style
       id="style1">.cls-1,.cls-2{fill:#009dd9;}.cls-2{fill-rule:evenodd;}</style><clipPath
       id="clip-mi_ciudad_logo"><rect
         width="476"
         height="167"
         id="rect1"
         x="0"
         y="0" /></clipPath><clipPath
       id="clip-es_fácil_logo"><rect
         width="396"
         height="242"
         id="rect1-3"
         x="0"
         y="0" /></clipPath></defs><g
     id="layer1"
     style="fill:#ffffff;fill-opacity:1"><g
       id="Layer1005"
       transform="matrix(1.4275285,0,0,1.4275285,-188.83148,-160.45755)"
       fill="none"
       style="fill:#ffffff;fill-opacity:1"><g
         id="Layer1006"
         fill="none"
         style="fill:#ffffff;fill-opacity:1"><path
           id="path3783"
           transform="translate(134.72609,114.3342)"
           fill="#800080"
           fill-rule="evenodd"
           stroke-opacity="0"
           stroke="#000000"
           stroke-width="0"
           stroke-linecap="square"
           stroke-linejoin="bevel"
           d="M 10.9106,4.5183 6.39071,0 1.87151,4.5183 c -2.494897,2.4959 -2.495797,6.5422 0,9.0385 0.6891,0.6886 1.4985,1.184 2.3586,1.4933 2.555,-1.3839 0.7946,-4.706 0.7946,-4.706 0,0 4.0468,0.8933 3.9184,4.5498 0.7138,-0.3101 1.38289,-0.753 1.96739,-1.3371 2.495,-2.4958 2.4949,-6.5426 10e-5,-9.0385 z"
           style="fill:#ffffff;fill-opacity:1" /><path
           id="path3785"
           transform="translate(135.47585,115.1083)"
           fill="#800080"
           fill-rule="evenodd"
           stroke-opacity="0"
           stroke="#000000"
           stroke-width="0"
           stroke-linecap="square"
           stroke-linejoin="bevel"
           d="M 0.154455,9.2062 C -0.283545,7.3794 0.209955,5.375 1.63565,3.9493 L 5.58505,0 9.53475,3.9493 c 0.60755,0.6071 1.04505,1.2704 1.19145,2.1183 0.0481,0.2793 0.0834,0.5386 0.06,0.5386 -4e-4,0 -9e-4,0 -0.002,-4e-4 C 9.70875,6.0821 8.50805,5.7734 7.23355,5.7438 c -0.0665,-0.002 -0.1328,-0.002 -0.1989,-0.002 -2.8086,0 -5.315,1.3581 -6.880495,3.4645 z"
           style="fill:#ffffff;fill-opacity:1" /></g><path
         id="path3788"
         transform="translate(150.282,118.849)"
         fill="#800080"
         fill-rule="evenodd"
         stroke-opacity="0"
         stroke="#000000"
         stroke-width="0"
         stroke-linecap="square"
         stroke-linejoin="bevel"
         d="M 4.2868,1.8413 C 3.9051,1.494 3.5236,1.341 3.0727,1.341 c -0.8654,0 -1.4512,0.6533 -1.4512,1.622 0,0.8902 0.6537,1.5863 1.5196,1.6296 0.2546,0.009 0.4239,-0.0262 0.6621,-0.1281 l 1e-4,-0.8151 H 2.8783 L 2.9886,2.5885 H 5.2722 V 5.1946 C 4.5925,5.6618 3.8712,5.874 2.9378,5.874 2.072,5.874 1.2055,5.5087 0.6881,4.9145 0.2205,4.3882 0,3.7429 0,2.9198 0,1.2731 1.3247,0 3.03,0 3.9388,0 4.6009,0.2377 5.1954,0.7803 Z"
         style="fill:#ffffff;fill-opacity:1" /><path
         id="path3790"
         transform="translate(154.8767,119.0012)"
         fill="#800080"
         fill-rule="evenodd"
         stroke-opacity="0"
         stroke="#000000"
         stroke-width="0"
         stroke-linecap="square"
         stroke-linejoin="bevel"
         d="M 2.9793,1.6978 2.2744,3.4296 H 3.641 Z M 3.9811,4.3463 H 1.9264 L 1.4261,5.5691 H 0 L 2.3934,0 H 3.7097 L 6.0694,5.5691 H 4.4646 Z"
         style="fill:#ffffff;fill-opacity:1" /><path
         id="path3792"
         transform="translate(160.1811,118.849)"
         fill="#800080"
         fill-rule="evenodd"
         stroke-opacity="0"
         stroke="#000000"
         stroke-width="0"
         stroke-linecap="square"
         stroke-linejoin="bevel"
         d="M 3.4209,2.9454 C 3.1998,2.7588 2.8522,2.555 2.3088,2.2744 1.8077,2.02 1.6807,1.884 1.6974,1.6211 c 0.0173,-0.2545 0.255,-0.441 0.5518,-0.441 0.3565,0 0.6789,0.1265 1.1963,0.4666 L 3.7774,0.5007 C 3.0305,0.1095 2.6229,0 1.9348,0 1.5528,0 1.0776,0.135 0.764,0.322 0.2801,0.6189 0,1.1117 0,1.6635 0,2.3516 0.2968,2.8007 0.9933,3.1831 1.0949,3.2334 1.3071,3.3445 1.5955,3.4977 2.0287,3.7256 2.1733,3.8792 2.1733,4.117 2.1735,4.4729 1.8844,4.694 1.4769,4.66 1.0142,4.6216 0.5646,4.4196 0.0918,4.0394 V 5.4342 C 0.6595,5.7311 1.2095,5.874 1.8077,5.874 3.056,5.874 3.9303,5.1439 3.9303,4.0998 3.9303,3.6582 3.7354,3.2166 3.4209,2.9454 Z"
         style="fill:#ffffff;fill-opacity:1" /><path
         id="path3794"
         transform="translate(177.802,119.029)"
         fill="#800080"
         fill-rule="evenodd"
         stroke-opacity="0"
         stroke="#000000"
         stroke-width="0"
         stroke-linecap="square"
         stroke-linejoin="bevel"
         d="M 0,0 V 5.5413 H 0.5262 V 0 Z"
         style="fill:#ffffff;fill-opacity:1" /><path
         id="path3796"
         transform="translate(167.1733,119.029)"
         fill="#800080"
         fill-rule="evenodd"
         stroke-opacity="0"
         stroke="#000000"
         stroke-width="0"
         stroke-linecap="square"
         stroke-linejoin="bevel"
         d="M 3.888,0 V 3.3256 C 3.888,3.9622 3.8112,4.3185 3.6329,4.5819 3.3533,4.9806 2.8694,5.1933 2.2236,5.1933 1.4266,5.1933 0.8314,4.8448 0.6286,4.259 0.5518,4.0301 0.5258,3.776 0.5258,3.2153 V 0 H 0 v 3.3004 c 0,0.5854 0.0339,0.8823 0.1186,1.1544 0.255,0.7556 1.0101,1.2048 2.0458,1.2048 0.6111,0 1.18,-0.1694 1.5629,-0.4579 C 4.2271,4.8108 4.4142,4.3018 4.4142,3.3083 L 4.4143,0 Z"
         style="fill:#ffffff;fill-opacity:1" /><path
         id="path3798"
         transform="translate(163.9311,119.029)"
         fill="#800080"
         fill-rule="evenodd"
         stroke-opacity="0"
         stroke="#000000"
         stroke-width="0"
         stroke-linecap="square"
         stroke-linejoin="bevel"
         d="m 1.1442,0 v 0.4146 h 0.7644 v 3.4628 c 0,0.9842 -0.2201,1.2819 -0.9634,1.2819 -0.2756,0 -0.4953,-0.0511 -0.8072,-0.1954 L 0,5.4139 C 0.3767,5.5748 0.6237,5.626 1.0462,5.626 1.5142,5.626 1.9545,5.4474 2.1843,5.1677 2.4054,4.9043 2.478,4.6075 2.478,4.0301 L 2.4782,0 Z"
         style="fill:#ffffff;fill-opacity:1" /><path
         id="path3800"
         transform="translate(179.1091,119.029)"
         fill="#800080"
         fill-rule="evenodd"
         stroke-opacity="0"
         stroke="#000000"
         stroke-width="0"
         stroke-linecap="square"
         stroke-linejoin="bevel"
         d="M 0.4675,5.5312 V 2.0525 c 0,-0.1619 0,-0.3401 -0.008,-0.6537 0,-0.187 0,-0.0427 -0.009,-0.4244 l 2e-4,-0.1363 C 0.7395,1.1945 0.9004,1.3988 1.0536,1.5854 1.1899,1.7552 1.3597,1.959 1.4524,2.0693 L 4.3421,5.5312 H 4.6183 L 4.6614,5.5153 V 0 H 4.1949 v 3.4275 c 0,0.1694 -10e-5,0.3563 0.008,0.6449 0,0.1782 0,0 0.008,0.569 C 3.6848,3.9622 3.8968,4.225 3.218,3.4107 L 0.3759,0 H 0 v 5.5312 z"
         style="fill:#ffffff;fill-opacity:1" /><path
         id="path3802"
         transform="translate(172.3515,119.029)"
         fill="#800080"
         fill-rule="evenodd"
         stroke-opacity="0"
         stroke="#000000"
         stroke-width="0"
         stroke-linecap="square"
         stroke-linejoin="bevel"
         d="M 0.4671,5.5312 V 2.0525 c 0,-0.1619 0,-0.3401 -0.008,-0.6537 0,-0.187 0,-0.0427 -0.009,-0.4244 V 0.8381 C 0.7382,1.1945 0.9,1.3988 1.0526,1.5854 1.1891,1.7552 1.3587,1.959 1.4523,2.0693 L 4.3412,5.5312 H 4.6174 L 4.6606,5.5153 V 0 H 4.1934 v 3.4275 c 0,0.1694 0,0.3563 0.009,0.6449 10e-5,0.1782 0,0 0.008,0.569 C 3.6842,3.9622 3.8968,4.225 3.2179,3.4107 L 0.3763,0 H 0 v 5.5312 z"
         style="fill:#ffffff;fill-opacity:1" /></g></g><style
     type="text/css"
     id="style1-6">
	.st0{fill:#009DD9;}
</style></svg>
